<?xml version="1.0" ?><svg height="512" viewBox="0 0 512 512" width="512" xmlns="http://www.w3.org/2000/svg"><defs><style>
      .cls-1 {
        fill: #fbae17;
      }

      .cls-2 {
        fill: none;
        stroke: #000;
        stroke-linecap: round;
        stroke-linejoin: round;
        stroke-width: 3px;
      }

      .cls-3 {
        fill: #fff;
      }
    </style></defs><title/><g data-name="Set v 2" id="Set_v_2"><g><circle class="cls-1" cx="256" cy="257.43" r="190.73"/><g><path class="cls-2" d="M110.47,173.73a169.93,169.93,0,0,1,9.71-14.95"/><path class="cls-2" d="M103.22,327.05a168.34,168.34,0,0,1-1.69-135.39"/><path class="cls-2" d="M123.11,360a169.16,169.16,0,0,1-11.06-16.18"/><path class="cls-2" d="M393.73,353.41A169.27,169.27,0,0,1,379.62,371"/><path class="cls-2" d="M409.76,190a168.23,168.23,0,0,1-8.35,151.34"/><path class="cls-2" d="M393.72,161.46A165.93,165.93,0,0,1,403.92,178"/></g><circle class="cls-2" cx="256" cy="257.43" r="190.73"/><g><g><polygon class="cls-3" points="323.19 377.77 323.19 380.01 274.13 375.92 236.65 269.59 236.65 269.57 189.14 134.79 235.79 134.79 275.23 244.46 323.19 377.77"/><polygon class="cls-3" points="236.65 269.57 236.65 269.59 236.25 376.83 189.14 380.07 188.6 134.79 189.14 134.79 236.65 269.57"/><polygon class="cls-3" points="323.4 135.71 323.19 377.77 275.23 244.46 276.13 135.71 323.4 135.71"/></g><g><polygon class="cls-2" points="323.19 377.77 323.19 380.01 274.13 375.92 236.65 269.59 236.65 269.57 189.14 134.79 235.79 134.79 275.23 244.46 323.19 377.77"/><polygon class="cls-2" points="236.65 269.57 236.65 269.59 236.25 376.83 189.14 380.07 188.6 134.79 189.14 134.79 236.65 269.57"/><polygon class="cls-2" points="323.4 135.71 323.19 377.77 275.23 244.46 276.13 135.71 323.4 135.71"/></g></g></g></g></svg>