<?xml version="1.0" encoding="UTF-8"?>
<svg xmlns="http://www.w3.org/2000/svg" xmlns:xlink="http://www.w3.org/1999/xlink" width="64px" height="64px" viewBox="0 0 64 64" version="1.1">
<g id="surface1">
<path style=" stroke:none;fill-rule:nonzero;fill:rgb(98.431373%,68.235294%,9.019608%);fill-opacity:1;" d="M 55.839844 32.179688 C 55.839844 45.347656 45.167969 56.019531 32 56.019531 C 18.832031 56.019531 8.160156 45.347656 8.160156 32.179688 C 8.160156 19.011719 18.832031 8.335938 32 8.335938 C 45.167969 8.335938 55.839844 19.011719 55.839844 32.179688 Z M 55.839844 32.179688 "/>
<path style="fill:none;stroke-width:3;stroke-linecap:round;stroke-linejoin:round;stroke:rgb(0%,0%,0%);stroke-opacity:1;stroke-miterlimit:4;" d="M 110.46875 173.71875 C 113.4375 168.59375 116.6875 163.59375 120.1875 158.78125 " transform="matrix(0.125,0,0,0.125,0,0)"/>
<path style="fill:none;stroke-width:3;stroke-linecap:round;stroke-linejoin:round;stroke:rgb(0%,0%,0%);stroke-opacity:1;stroke-miterlimit:4;" d="M 103.21875 327.0625 C 83.71875 284.15625 83.125 235.03125 101.53125 191.65625 " transform="matrix(0.125,0,0,0.125,0,0)"/>
<path style="fill:none;stroke-width:3;stroke-linecap:round;stroke-linejoin:round;stroke:rgb(0%,0%,0%);stroke-opacity:1;stroke-miterlimit:4;" d="M 123.125 360 C 119.125 354.8125 115.40625 349.4375 112.0625 343.8125 " transform="matrix(0.125,0,0,0.125,0,0)"/>
<path style="fill:none;stroke-width:3;stroke-linecap:round;stroke-linejoin:round;stroke:rgb(0%,0%,0%);stroke-opacity:1;stroke-miterlimit:4;" d="M 393.71875 353.40625 C 389.4375 359.59375 384.71875 365.46875 379.625 371 " transform="matrix(0.125,0,0,0.125,0,0)"/>
<path style="fill:none;stroke-width:3;stroke-linecap:round;stroke-linejoin:round;stroke:rgb(0%,0%,0%);stroke-opacity:1;stroke-miterlimit:4;" d="M 409.75 190 C 431.15625 238.90625 428.0625 295.0625 401.40625 341.34375 " transform="matrix(0.125,0,0,0.125,0,0)"/>
<path style="fill:none;stroke-width:3;stroke-linecap:round;stroke-linejoin:round;stroke:rgb(0%,0%,0%);stroke-opacity:1;stroke-miterlimit:4;" d="M 393.71875 161.46875 C 397.4375 166.78125 400.84375 172.28125 403.90625 178 " transform="matrix(0.125,0,0,0.125,0,0)"/>
<path style="fill:none;stroke-width:3;stroke-linecap:round;stroke-linejoin:round;stroke:rgb(0%,0%,0%);stroke-opacity:1;stroke-miterlimit:4;" d="M 446.71875 257.4375 C 446.71875 362.78125 361.34375 448.15625 256 448.15625 C 150.65625 448.15625 65.28125 362.78125 65.28125 257.4375 C 65.28125 152.09375 150.65625 66.6875 256 66.6875 C 361.34375 66.6875 446.71875 152.09375 446.71875 257.4375 Z M 446.71875 257.4375 " transform="matrix(0.125,0,0,0.125,0,0)"/>
<path style=" stroke:none;fill-rule:nonzero;fill:rgb(100%,100%,100%);fill-opacity:1;" d="M 40.398438 47.222656 L 40.398438 47.5 L 34.265625 46.988281 L 29.582031 33.699219 L 29.582031 33.695312 L 23.640625 16.847656 L 29.472656 16.847656 L 34.402344 30.558594 Z M 40.398438 47.222656 "/>
<path style=" stroke:none;fill-rule:nonzero;fill:rgb(100%,100%,100%);fill-opacity:1;" d="M 29.582031 33.695312 L 29.582031 33.699219 L 29.53125 47.105469 L 23.640625 47.507812 L 23.574219 16.847656 L 23.640625 16.847656 Z M 29.582031 33.695312 "/>
<path style=" stroke:none;fill-rule:nonzero;fill:rgb(100%,100%,100%);fill-opacity:1;" d="M 40.425781 16.964844 L 40.398438 47.222656 L 34.402344 30.558594 L 34.515625 16.964844 Z M 40.425781 16.964844 "/>
<path style="fill:none;stroke-width:3;stroke-linecap:round;stroke-linejoin:round;stroke:rgb(0%,0%,0%);stroke-opacity:1;stroke-miterlimit:4;" d="M 323.1875 377.78125 L 323.1875 380 L 274.125 375.90625 L 236.65625 269.59375 L 236.65625 269.5625 L 189.125 134.78125 L 235.78125 134.78125 L 275.21875 244.46875 Z M 323.1875 377.78125 " transform="matrix(0.125,0,0,0.125,0,0)"/>
<path style="fill:none;stroke-width:3;stroke-linecap:round;stroke-linejoin:round;stroke:rgb(0%,0%,0%);stroke-opacity:1;stroke-miterlimit:4;" d="M 236.65625 269.5625 L 236.65625 269.59375 L 236.25 376.84375 L 189.125 380.0625 L 188.59375 134.78125 L 189.125 134.78125 Z M 236.65625 269.5625 " transform="matrix(0.125,0,0,0.125,0,0)"/>
<path style="fill:none;stroke-width:3;stroke-linecap:round;stroke-linejoin:round;stroke:rgb(0%,0%,0%);stroke-opacity:1;stroke-miterlimit:4;" d="M 323.40625 135.71875 L 323.1875 377.78125 L 275.21875 244.46875 L 276.125 135.71875 Z M 323.40625 135.71875 " transform="matrix(0.125,0,0,0.125,0,0)"/>
</g>
</svg>
